PathFileType	4	(X/Y/Z)	C:\Users\WrightLab\Desktop\Jo\P3_32.trc
DataRate	CameraRate	NumFrames	NumMarkers	Units	OrigDataRate	OrigDataStartFrame	OrigNumFrames
100.00	100.00	       6	19	mm	100.00	504	       671
Frame#	Time	Headset_Front			Headset_Back			Headset_Left			Headset_Right			Left_Shoulder			Right_Shoulder			Sternum			C7			Left Elbow			Right Elbow			Left Wrist			Right Wrist			Left ASIS			Right ASIS			S2			Left Knee			Right Knee			Left Ankle			Right Ankle			
		X1	Y1	Z1	X2	Y2	Z2	X3	Y3	Z3	X4	Y4	Z4	X5	Y5	Z5	X6	Y6	Z6	X7	Y7	Z7	X8	Y8	Z8	X9	Y9	Z9	X10	Y10	Z10	X11	Y11	Z11	X12	Y12	Z12	X13	Y13	Z13	X14	Y14	Z14	X15	Y15	Z15	X16	Y16	Z16	X17	Y17	Z17	X18	Y18	Z18	X19	Y19	Z19	

504	5.030	178.75601	1550.96997	1548.87622	291.54016	1604.94348	1385.76758				74.16698	1570.80457	1440.79980	371.51254	1363.25378	1311.88416	9.03063	1373.97766	1337.93555	205.32246	1260.36169	1464.58398	181.72968	1417.43518	1273.87878	444.22055	1030.83484	1302.37939	-71.26411	1029.32104	1323.01611	447.36301	853.36932	1409.27637	-54.22695	850.51184	1462.53528	310.10641	900.87628	1443.66431	58.59386	892.36426	1464.09509	169.16965	962.88947	1237.58398	334.56732	487.52466	1457.38647	68.25919	459.05969	1470.43115	330.57608	155.32219	1433.70471	38.84782	267.22052	1193.22131	
505	5.040	180.31790	1552.07007	1556.25305	293.22113	1606.42883	1394.65222				75.78563	1572.04480	1448.76013	373.75903	1364.28943	1321.70398	11.05329	1374.99524	1344.82336	206.29265	1260.78113	1472.04456	184.49632	1419.41089	1282.76196	448.07648	1033.35034	1314.14807	-69.05592	1030.84607	1330.31812	450.95474	855.09302	1422.15515	-51.69614	850.31396	1466.02808	311.62497	901.34082	1451.81775	59.76167	893.07074	1470.74792	172.80003	963.70325	1244.72717	335.84933	487.69046	1460.46765	71.38535	461.66733	1487.32324	330.82800	155.23610	1434.25745	44.92254	270.74207	1209.08582	
506	5.050	181.47232	1553.01758	1564.55737	295.09879	1607.41345	1402.90454				77.54687	1573.05945	1456.23462	375.99988	1366.12366	1330.71985	12.90360	1375.77502	1351.84143	207.74988	1261.73718	1480.69202	186.70703	1420.55420	1290.60840	452.61902	1034.84326	1325.89404	-66.72580	1030.69287	1336.23779	455.10941	857.90540	1434.46973	-49.70810	850.70569	1471.55640	313.72925	902.06946	1458.86035	61.15899	892.56287	1472.73816	174.86382	965.31451	1252.07422	336.58771	487.45999	1462.67554	73.40265	465.03348	1503.97742	331.02707	155.29474	1434.88635	50.24834	272.68967	1226.08875	
507	5.060	182.53003	1553.71655	1572.08704	296.78815	1608.50525	1411.43384				78.85194	1573.68274	1464.14429	377.50851	1367.05530	1340.44531	14.65969	1376.51843	1358.87415	208.77315	1262.34644	1488.32227	189.09082	1421.67480	1298.68213	456.80093	1036.83044	1337.60803	-64.95666	1031.82214	1341.40588	459.53183	860.48773	1447.68079	-47.76974	851.20398	1477.23022	315.19952	903.46045	1467.42798	61.90403	893.13727	1479.49365	177.95752	966.30127	1258.61707	338.57892	487.50467	1464.73303	76.56298	468.10007	1519.93530	331.06726	155.35887	1435.73865	55.88078	274.62369	1243.82556	
508	5.070	183.61719	1554.19067	1580.18616	298.77539	1608.84131	1419.12476				80.53368	1574.58557	1471.18909	379.68652	1368.83777	1349.07532	16.67446	1377.28162	1365.78613	209.80638	1262.68774	1496.10596	191.12978	1422.51648	1306.80334	460.17184	1038.57019	1350.08032	-62.13360	1032.72034	1348.40894	463.62988	863.49475	1460.82214	-46.16109	851.99207	1483.03394	316.46414	903.98126	1475.58521	63.54259	895.02991	1485.64941	180.64793	967.23102	1265.94666	339.21283	486.88403	1467.56592	78.91022	471.55670	1535.70911	331.27667	155.17209	1436.40271	61.45246	274.74457	1261.73010	
509	5.080	183.81920	1555.12952	1588.58630	299.85681	1609.70837	1428.27332				81.68916	1575.61316	1479.30188	381.02368	1369.48389	1358.93567	18.27001	1378.12720	1372.71472	210.57634	1263.43311	1503.19739	193.15810	1423.58374	1314.54016	463.42325	1040.77539	1361.95923	-60.12015	1034.23230	1353.90356	467.06076	865.60004	1473.62122	-44.66481	851.99969	1486.57556	318.27057	904.48035	1482.42834	65.48842	896.86060	1492.60376	182.89816	968.34387	1273.27197	340.24918	486.71481	1470.03687	81.36129	473.75549	1547.84998	331.24814	155.12308	1437.01819	66.78491	274.03488	1280.27893	
